<?xml version="1.0" encoding="utf-8"?>
<!-- Generator: Adobe Illustrator 22.0.0, SVG Export Plug-In . SVG Version: 6.00 Build 0)  -->
<svg version="1.1" id="Layer_1" xmlns="http://www.w3.org/2000/svg" xmlns:xlink="http://www.w3.org/1999/xlink" x="0px" y="0px"
	 viewBox="0 0 226.8 226.8" style="enable-background:new 0 0 226.8 226.8;" xml:space="preserve">
<style type="text/css">
	.st0{fill:#209243;}
	.st1{fill-rule:evenodd;clip-rule:evenodd;fill:#209243;}
</style>
<g>
	<g>
		<g>
			<path class="st0" d="M189,123.7c-3.1-3.1-6.9-4.7-11.3-4.7c-4.4,0-8.2,1.6-11.3,4.7c-3.1,3.1-4.7,6.9-4.7,11.3
				c0,2.3,0.3,4.1,1,5.6c0,0,12.2,25.4,12.9,25.8c0.7,0.4,1.4,0.6,2.1,0.6c0.8,0,1.5-0.2,2.1-0.6c0.7-0.4,12.9-25.8,12.9-25.8
				c0.7-1.5,1-3.3,1-5.6C193.7,130.6,192.1,126.9,189,123.7z M183.3,140.7c-1.6,1.6-3.4,2.3-5.7,2.3s-4.1-0.8-5.7-2.3
				c-1.6-1.6-2.3-3.4-2.3-5.7c0-2.2,0.8-4.1,2.3-5.7c1.6-1.6,3.4-2.3,5.7-2.3c2.2,0,4.1,0.8,5.7,2.3c1.6,1.6,2.3,3.4,2.3,5.7
				C185.7,137.3,184.9,139.2,183.3,140.7z"/>
		</g>
		<path class="st1" d="M177.8,101.2c-23.3,0-42.2,18.9-42.2,42.2s18.9,42.2,42.2,42.2s42.2-18.9,42.2-42.2S201.1,101.2,177.8,101.2z
			 M177.8,175.4c-17.6,0-31.9-14.3-31.9-31.9s14.3-31.9,31.9-31.9s31.9,14.3,31.9,31.9S195.4,175.4,177.8,175.4z"/>
	</g>
	<path class="st0" d="M177.8,94.9c1.2,0,2.3,0.1,3.5,0.2l-10.8-9V37.8c0-1.1-0.4-2-1.1-2.7c-0.7-0.7-1.6-1.1-2.7-1.1H144
		c-1.1,0-2,0.4-2.7,1.1c-0.7,0.7-1.1,1.6-1.1,2.7v23.1l-28.9-24.2c-2.5-2.1-5.5-3.1-9-3.1c-3.5,0-6.5,1-9,3.1l-85.2,71
		c-0.8,0.6-1.2,1.5-1.3,2.5c-0.1,1.1,0.2,2,0.8,2.8l7.3,8.8c0.6,0.7,1.5,1.1,2.5,1.3c0.9,0.1,1.9-0.2,2.8-0.8l82-68.3l54.8,45.7
		C163.4,96.7,170.4,94.9,177.8,94.9z"/>
	<path class="st0" d="M154.7,185.6c-15-8.2-25.2-24.1-25.2-42.4c0-16.3,8.1-30.8,20.6-39.5l-47.8-39.4l-68.1,56.1
		c0,0.1,0,0.2-0.1,0.4c0,0.2-0.1,0.3-0.1,0.4v56.9c0,2.1,0.7,3.8,2.3,5.3c1.5,1.5,3.3,2.3,5.3,2.3h45.5v-45.5h30.3v45.5H154.7z"/>
</g>
</svg>
