<?xml version="1.0" encoding="utf-8"?>
<!-- Generator: Adobe Illustrator 22.0.0, SVG Export Plug-In . SVG Version: 6.00 Build 0)  -->
<svg version="1.1" id="Capa_1" xmlns="http://www.w3.org/2000/svg" xmlns:xlink="http://www.w3.org/1999/xlink" x="0px" y="0px"
	 viewBox="0 0 283.5 283.5" style="enable-background:new 0 0 283.5 283.5;" xml:space="preserve">
<style type="text/css">
	.st0{fill:#9A999E;}
	.st1{clip-path:url(#SVGID_2_);fill:#9A999E;}
	.st2{clip-path:url(#SVGID_2_);fill:#2D9543;}
</style>
<polygon class="st0" points="85.2,215.9 79.4,215.9 79.4,202.5 70.4,202.5 70.4,215.9 64.6,215.9 64.6,185.2 70.4,185.2 70.4,197.8 
	79.4,197.8 79.4,185.2 85.2,185.2 "/>
<g>
	<defs>
		<rect id="SVGID_1_" width="283.5" height="283.5"/>
	</defs>
	<clipPath id="SVGID_2_">
		<use xlink:href="#SVGID_1_"  style="overflow:visible;"/>
	</clipPath>
	<path class="st1" d="M91.3,215.9v-30.7h7.3c4.7,0,8.4,1,10.9,3c3.1,2.5,4.7,6.5,4.7,12.1c0,6.1-1.7,10.4-5.2,13
		c-1.4,1-2.9,1.7-4.7,2.1c-1.4,0.3-3.1,0.5-5.2,0.5H91.3z M97,211.6h1c2.6,0,4.6-0.5,5.9-1.4c1.4-1,2.5-2.4,3.3-4.3
		c0.6-1.6,0.9-3.3,0.9-5.3c0-3.4-0.9-6.1-2.6-8.2c-0.9-1.1-1.9-1.8-3.1-2.2s-2.7-0.6-4.4-0.6h-1V211.6z"/>
	<rect x="119.3" y="185.2" class="st1" width="5.7" height="30.7"/>
	<rect x="141.8" y="185.2" class="st2" width="3.7" height="38.4"/>
	<path class="st2" d="M198,110.1l-4.7,5.6c-0.4,0.5-0.9,0.7-1.6,0.8h-0.2c-0.7,0-1.2-0.2-1.6-0.5l-51.9-43.3L86.1,116
		c-0.6,0.4-1.2,0.6-1.8,0.5c-0.7-0.1-1.2-0.4-1.6-0.8l-4.7-5.6c-0.4-0.5-0.6-1.1-0.5-1.8c0-0.7,0.3-1.2,0.8-1.6l54-45
		c1.6-1.3,3.5-2,5.7-2c2.2,0,4.1,0.7,5.7,2l18.3,15.3V62.5c0-0.7,0.2-1.3,0.7-1.7c0.4-0.5,1-0.7,1.7-0.7h14.4c0.7,0,1.3,0.2,1.7,0.7
		c0.5,0.4,0.7,1,0.7,1.7v30.6l16.4,13.7c0.5,0.4,0.8,0.9,0.8,1.6C198.6,109,198.4,109.6,198,110.1 M181.3,115.3v36
		c0,1.3-0.5,2.4-1.4,3.4c-1,1-2.1,1.4-3.4,1.4h-28.8v-28.8h-19.2v28.8H99.7c-1.3,0-2.4-0.5-3.4-1.4c-1-0.9-1.4-2.1-1.4-3.4v-36
		c0,0,0-0.1,0-0.2c0-0.1,0-0.2,0-0.2l43.2-35.6l43.2,35.6C181.3,114.9,181.3,115.1,181.3,115.3"/>
	<path class="st1" d="M171.6,189.5h-8c0.1,1.3,0.3,2.3,0.7,2.9c0.7,1.3,1.7,2,3,2c1.2,0,2.4-0.4,3.5-1.3l0.1,2.3
		c-1.2,0.6-2.4,0.9-3.6,0.9c-1.7,0-3.1-0.5-4.1-1.5c-1.3-1.3-2-3.3-2-6c0-1.9,0.4-3.5,1.1-4.8c0.5-0.8,1.1-1.4,1.8-1.9
		c0.7-0.4,1.6-0.7,2.5-0.7c1.8,0,3.1,0.8,4,2.3c0.7,1.3,1.1,2.8,1.1,4.7C171.7,188.7,171.7,189,171.6,189.5 M163.6,187.8h5.7
		c-0.1-1.1-0.2-1.9-0.3-2.4c-0.4-1.4-1.2-2.1-2.4-2.1c-0.8,0-1.5,0.3-2,1c-0.4,0.6-0.7,1.2-0.8,1.9
		C163.8,186.7,163.7,187.2,163.6,187.8"/>
	<path class="st1" d="M184.3,196h-2.3v-7.1c0-1.9-0.1-3.1-0.3-3.7c-0.3-1.1-1-1.7-2-1.7c-1,0-1.8,0.5-2.3,1.4
		c-0.3,0.6-0.5,1.2-0.6,1.8c-0.1,0.7-0.1,1.4-0.1,2.2v7h-2.4v-8.9c0-2.3-0.1-4.1-0.1-5.3h2.3v2.1c0.4-0.7,0.8-1.2,1.2-1.5
		c0.7-0.6,1.6-0.8,2.5-0.8c1.6,0,2.8,0.8,3.5,2.3c0.2,0.3,0.3,0.7,0.4,0.9c0.2,0.6,0.2,1.9,0.2,3.9V196z"/>
	<path class="st1" d="M196.7,181.9v2c1-1.5,2.2-2.3,3.5-2.3c0.9,0,1.6,0.3,2.2,0.8c0.4,0.4,0.8,1,1.1,1.7c0.4-0.8,0.8-1.4,1.3-1.7
		c0.7-0.6,1.5-0.9,2.5-0.9c1.3,0,2.3,0.5,3,1.6c0.4,0.7,0.6,1.4,0.7,2.1c0.1,0.8,0.1,1.8,0.1,3v7.7h-2.4v-7.2c0-1.8-0.1-3-0.2-3.5
		c-0.3-1.1-0.9-1.6-1.8-1.6c-0.9,0-1.6,0.4-2,1.3c-0.3,0.6-0.5,1.2-0.6,1.8c-0.1,0.8-0.1,1.6-0.1,2.7v6.7h-2.3v-6.9
		c0-1.9-0.1-3.1-0.2-3.6c-0.3-1.3-0.9-1.9-1.8-1.9c-0.6,0-1,0.2-1.5,0.6c-0.5,0.5-0.8,1.1-1,2c-0.1,0.6-0.2,1.6-0.2,2.8v7h-2.4v-8.2
		c0-2,0-4-0.1-5.9H196.7z"/>
	<path class="st1" d="M217,178.6h-2.4v-2.7h2.4V178.6z M217,196h-2.4v-14.2h2.4V196z"/>
	<path class="st1" d="M173.3,202l-0.1,2.7l-0.2-0.1c-0.1,0-0.3-0.1-0.7-0.3c-0.8-0.4-1.6-0.6-2.4-0.6c-1.4,0-2.5,0.5-3.3,1.5
		c-0.5,0.6-0.9,1.5-1.2,2.6c-0.2,0.9-0.4,1.9-0.4,2.8c0,1.8,0.4,3.4,1.1,4.8c0.4,0.8,0.9,1.3,1.7,1.8c0.6,0.3,1.3,0.5,2,0.5
		c1.1,0,2.3-0.3,3.5-1l0.1,2.7c-1.4,0.6-2.7,0.9-4.1,0.9c-2.7,0-4.7-1.2-6.1-3.6c-0.9-1.6-1.4-3.6-1.4-6c0-2.8,0.6-5.1,1.9-6.7
		c1.5-1.9,3.4-2.8,5.8-2.8C170.6,201.2,171.9,201.5,173.3,202"/>
	<path class="st1" d="M177.5,205.6l-0.4-2.7c0.5-0.3,0.8-0.5,1-0.6c1.3-0.7,2.8-1,4.3-1c1.8,0,3.2,0.5,4.3,1.4
		c0.8,0.7,1.3,1.7,1.6,2.9c0.2,0.9,0.3,2.3,0.3,4.2v3.4c0,2.4,0.1,4.7,0.2,6.8h-3c-0.1-0.9-0.1-1.7-0.2-2.5c-0.5,0.9-1,1.5-1.5,1.9
		c-0.9,0.7-1.9,1-3.2,1c-1.7,0-3-0.5-4-1.6c-0.9-1-1.3-2.3-1.3-3.8c0-1.7,0.5-3,1.5-4c1.4-1.4,3.7-2.1,6.8-2.1c0.6,0,1.1,0,1.7,0.1
		V208c0-1.7-0.4-2.8-1.2-3.5c-0.6-0.5-1.3-0.8-2.2-0.8C181,203.7,179.3,204.3,177.5,205.6 M185.7,210.9c-0.8,0-1.2-0.1-1.4-0.1
		c-3.8,0-5.6,1.3-5.6,4c0,1.1,0.3,1.9,1,2.5c0.5,0.5,1.2,0.7,2,0.7c1.1,0,1.9-0.4,2.6-1.2c0.4-0.5,0.8-1.3,1-2.2
		c0.2-0.8,0.3-1.6,0.3-2.5V210.9z"/>
	<path class="st1" d="M202,202l-0.2,2.5c-1.3-0.6-2.5-0.9-3.5-0.9c-1,0-1.8,0.3-2.2,0.8c-0.4,0.4-0.5,0.9-0.5,1.6
		c0,0.5,0.1,1,0.4,1.3c0.4,0.6,1.3,1.2,2.8,2c1.8,0.9,3,1.9,3.6,2.9c0.4,0.8,0.6,1.7,0.6,2.6c0,1.7-0.5,3-1.6,4
		c-1.1,0.9-2.5,1.4-4.4,1.4c-1.5,0-3-0.4-4.6-1.2l0.3-2.7c0.8,0.5,1.4,0.8,1.8,1c0.7,0.3,1.4,0.4,2.2,0.4c1.2,0,2-0.3,2.6-0.9
		c0.4-0.5,0.7-1.1,0.7-1.9c0-0.7-0.2-1.4-0.7-1.9c-0.4-0.5-1.3-1-2.6-1.8c-1.3-0.7-2.3-1.4-2.9-2c-0.7-0.8-1.1-1.8-1.1-3.1
		c0-1.6,0.5-2.8,1.5-3.7c1-0.9,2.3-1.4,3.9-1.4C199.1,201.2,200.4,201.5,202,202"/>
	<path class="st1" d="M207.5,205.6l-0.4-2.7c0.5-0.3,0.8-0.5,1-0.6c1.3-0.7,2.8-1,4.3-1c1.8,0,3.2,0.5,4.3,1.4
		c0.8,0.7,1.3,1.7,1.6,2.9c0.2,0.9,0.3,2.3,0.3,4.2v3.4c0,2.4,0.1,4.7,0.2,6.8h-3c-0.1-0.9-0.1-1.7-0.2-2.5c-0.5,0.9-1,1.5-1.5,1.9
		c-0.9,0.7-1.9,1-3.2,1c-1.7,0-3-0.5-4-1.6c-0.9-1-1.3-2.3-1.3-3.8c0-1.7,0.5-3,1.5-4c1.4-1.4,3.7-2.1,6.8-2.1c0.6,0,1.1,0,1.7,0.1
		V208c0-1.7-0.4-2.8-1.2-3.5c-0.6-0.5-1.3-0.8-2.2-0.8C210.9,203.7,209.3,204.3,207.5,205.6 M215.7,210.9c-0.8,0-1.2-0.1-1.4-0.1
		c-3.8,0-5.6,1.3-5.6,4c0,1.1,0.3,1.9,1,2.5c0.5,0.5,1.2,0.7,2,0.7c1.1,0,1.9-0.4,2.7-1.2c0.4-0.5,0.8-1.3,1-2.2
		c0.2-0.8,0.3-1.6,0.3-2.5V210.9z"/>
</g>
</svg>
