<?xml version="1.0" encoding="iso-8859-1"?>
<!-- Generator: Adobe Illustrator 22.0.0, SVG Export Plug-In . SVG Version: 6.00 Build 0)  -->
<svg version="1.1" id="Layer_1" xmlns="http://www.w3.org/2000/svg" xmlns:xlink="http://www.w3.org/1999/xlink" x="0px" y="0px"
	 viewBox="0 0 240.3 226.8" style="enable-background:new 0 0 240.3 226.8;" xml:space="preserve">
<style type="text/css">
	.st0{fill:#209243;}
	.st1{fill-rule:evenodd;clip-rule:evenodd;fill:#209243;}
</style>
<g>
	<g>
		<g>
			<polygon class="st0" points="205.9,136.5 194.7,136.5 194.7,125.3 181.9,125.3 181.9,136.5 170.7,136.5 170.7,149.3 181.9,149.3 
				181.9,160.5 194.7,160.5 194.7,149.3 205.9,149.3 			"/>
			<path class="st1" d="M188.2,98c-24.7,0-44.6,20-44.6,44.6s20,44.6,44.6,44.6s44.6-20,44.6-44.6S212.8,98,188.2,98z M188.2,176.4
				c-18.7,0-33.8-15.1-33.8-33.8c0-18.7,15.1-33.8,33.8-33.8S222,124,222,142.6C222,161.3,206.8,176.4,188.2,176.4z"/>
		</g>
		<path class="st0" d="M188.3,91.4c1.2,0,2.5,0.1,3.7,0.2l-11.4-9.5V31c0-1.2-0.4-2.1-1.1-2.9c-0.8-0.8-1.7-1.1-2.9-1.1h-24
			c-1.2,0-2.1,0.4-2.9,1.1c-0.8,0.8-1.1,1.7-1.1,2.9v24.4L118,29.8c-2.7-2.2-5.8-3.3-9.5-3.3c-3.7,0-6.8,1.1-9.5,3.3l-90.1,75
			c-0.8,0.7-1.3,1.6-1.4,2.7c-0.1,1.1,0.2,2.1,0.9,2.9l7.8,9.3c0.7,0.8,1.5,1.2,2.6,1.4c1,0.1,2-0.2,3-0.9L108.5,48l58,48.3
			C173.1,93.2,180.5,91.4,188.3,91.4z"/>
		<path class="st0" d="M163.9,187.3c-15.9-8.7-26.6-25.5-26.6-44.8c0-17.3,8.6-32.5,21.7-41.8L108.5,59l-72,59.4
			c0,0.1,0,0.2-0.1,0.4c0,0.2-0.1,0.3-0.1,0.4v60.1c0,2.2,0.8,4.1,2.4,5.6c1.6,1.6,3.5,2.4,5.6,2.4h48.1v-48.1h32.1v48.1H163.9z"/>
	</g>
</g>
</svg>
